<?xml version="1.0" encoding="UTF-8" standalone="no"?>
<svg
   xmlns:dc="http://purl.org/dc/elements/1.1/"
   xmlns:cc="http://creativecommons.org/ns#"
   xmlns:rdf="http://www.w3.org/1999/02/22-rdf-syntax-ns#"
   xmlns:svg="http://www.w3.org/2000/svg"
   xmlns="http://www.w3.org/2000/svg"
   xmlns:sodipodi="http://sodipodi.sourceforge.net/DTD/sodipodi-0.dtd"
   xmlns:inkscape="http://www.inkscape.org/namespaces/inkscape"
   id="Layer_1"
   data-name="Layer 1"
   viewBox="0 0 126.69693 36.575541"
   version="1.1"
   sodipodi:docname="SHE_logo_v3.svg"
   inkscape:export-filename="C:\Users\dell\Desktop\docs\hat.svg.png"
   inkscape:export-xdpi="96"
   inkscape:export-ydpi="96"
   inkscape:version="1.0.2 (e86c870879, 2021-01-15, custom)"
   width="126.69693"
   height="36.575542">
  <metadata
     id="metadata74">
    <rdf:RDF>
      <cc:Work
         rdf:about="">
        <dc:format>image/svg+xml</dc:format>
        <dc:type
           rdf:resource="http://purl.org/dc/dcmitype/StillImage" />
        <dc:title></dc:title>
      </cc:Work>
    </rdf:RDF>
  </metadata>
  <sodipodi:namedview
     pagecolor="#ffffff"
     bordercolor="#666666"
     borderopacity="1"
     objecttolerance="10"
     gridtolerance="10"
     guidetolerance="10"
     inkscape:pageopacity="0"
     inkscape:pageshadow="2"
     inkscape:window-width="1920"
     inkscape:window-height="1001"
     id="namedview72"
     showgrid="false"
     inkscape:zoom="5.4825554"
     inkscape:cx="56.75778"
     inkscape:cy="14.017605"
     inkscape:window-x="-9"
     inkscape:window-y="-9"
     inkscape:window-maximized="1"
     inkscape:current-layer="Layer_1" />
  <defs
     id="defs4">
    <style
       id="style2">.cls-1,.cls-3{fill:#155594;}.cls-2{fill:none;stroke:#000;}.cls-2,.cls-3{stroke-miterlimit:10;}.cls-3{stroke:#155594;stroke-width:0.5px;}</style>
  </defs>
  <path
     id="hat"
     class="cls-2"
     d="m 0.7696848,35.432059 c 0.83,0.69 3.25,0.12 4.23,0.33 a 19.09,19.09 0 0 0 3.81,0.31 c 4.4400002,-0.19 17.7100002,-1.5 25.7100002,-1.53 h 12.42 c 8.12,0 16.23,0.05 24.34,0 14.36,-0.09 15,-0.32 19.24,0 a 71.28,71.28 0 0 0 8.17,0.34 c 3.659995,-0.08 4.629995,-0.41 8.169995,-0.34 3.2,0.06 2.76,0.34 7,0.51 6.88,0.27 4.15,-0.64 9,-0.51 0.85,0 2.42,0.09 3.06,-0.85 a 2.11,2.11 0 0 0 0.17,-1.71 2.87,2.87 0 0 0 -1.7,-1.53 4.94,4.94 0 0 0 -3.06,-0.51 c -0.94,0.18 -1,0.53 -2.39,1.19 a 14.35,14.35 0 0 1 -3.23,1 24.33,24.33 0 0 1 -3.75,0.51 c -1.69,0.12 -2.35,0 -3.95,0.08 -2.7,0 -3.09,0.29 -5.24,0.38 a 53.89,53.89 0 0 1 -7.529995,-0.51 51.81,51.81 0 0 1 -6.38,-0.76 c -2.76,-1.42 -3.86,-4.51 -5.62,-9.45 -1.47,-4.13 -1.27,-5.45 -3.06,-8 a 11.46,11.46 0 0 0 -4.22,-4 14.3,14.3 0 0 0 -5.1,-1.2800001 c -2.53,-0.31 -3,0 -5.24,-0.25 a 16.3,16.3 0 0 1 -5.23,-1.41 c -3.63,-1.35 -4.15,-2.25 -7.66,-4 -3.51,-1.75 -6.19,-3 -9.7,-2.94 -1.89,0 -3.65,0.57 -7.15,1.66 -2.74,0.85 -3.83,1.45 -4.72,2.43 a 21.27,21.27 0 0 0 -1.79,3.06 38.46,38.46 0 0 0 -2.76,6.9100001 c -0.11,0.53 -0.68,2.6 -0.77,3.38 a 41.5,41.5 0 0 1 -0.76,5.62 14.86,14.86 0 0 1 -1.15,3.32 8.66,8.66 0 0 1 -2.43,3.32 8.53,8.53 0 0 1 -4.34,1.4 c -2,0.29 -2.24,0 -5,0.13 a 40.1,40.1 0 0 0 -6.3800002,0.77 22.3,22.3 0 0 0 -4.37,1.14 v 0 c -0.8,0.5 -1.26000001,1.27 -0.64,1.79 z" />
  <path
     class="cls-3"
     d="m 68.709685,19.622059 c 0,-3.92 -0.07,-4.93 -0.12,-5.74 -0.05,-0.81 -0.25,-1.25 -1.08,-1.42 a 7.09,7.09 0 0 0 -0.73,-0.08 c -0.18,0 -0.33,0 -0.33,-0.15 0,-0.15 0.13,-0.2 0.41,-0.2 0.57,0 1.7,0 2.84,0.07 3.14,0.32 3.38,1.22 5.82,1.92 a 1.63,1.63 0 0 0 1.16,-0.15 0.69,0.69 0 0 1 0.27,-0.1 c 0.08,0 0.1,0.1 0.1,0.23 a 10.33,10.33 0 0 0 -0.2,1.18 c 0,0.37 0,0.85 -0.1,1.5 0,0.25 -0.1,0.43 -0.2,0.43 -0.1,0 -0.2,-0.13 -0.2,-0.33 a 2.41,2.41 0 0 0 -0.13,-0.83 c -0.17,-0.57 -1.15,-0.82 -2.14,-1.24 -1.34,-0.56 -2.83,-1.39 -3.11,-1.39 -0.1,0 -0.15,0.08 -0.15,0.25 v 6.92 c 0,0.18 0,0.25 0.15,0.25 0.33,0 3.42,0 4,0 0.58,0 1,-0.12 1.25,-0.42 0.13,-0.15 0.21,-0.25 0.31,-0.25 0.1,0 0.12,0.05 0.12,0.2 0,0.15 -0.12,0.57 -0.2,1.4 -0.08,0.83 -0.07,1.36 -0.1,1.71 -0.03,0.35 -0.07,0.37 -0.18,0.37 -0.11,0 -0.17,-0.2 -0.17,-0.4 a 2.47,2.47 0 0 0 -0.1,-0.7 c -0.1,-0.38 -0.4,-0.73 -1.31,-0.83 -0.68,-0.07 -3.17,-0.12 -3.59,-0.12 -0.13,0 -0.18,0.07 -0.18,0.17 v 2.21 c 0,0.85 0,3.76 0,4.29 0.05,1 0.2,1.58 0.83,1.83 a 6.31,6.31 0 0 0 2.09,0.22 8.39,8.39 0 0 0 2.26,-0.22 c 0.8,-0.25 1.08,-0.78 1.28,-1.86 0,-0.27 0.1,-0.37 0.23,-0.37 0.13,0 0.15,0.2 0.15,0.37 a 23.15,23.15 0 0 1 -0.33,2.43 c -0.18,0.66 -0.38,0.66 -1.36,0.66 -1.86,0 -2.69,0 -3.67,-0.08 -0.98,-0.08 -2.16,-0.07 -3.14,-0.07 -0.6,0 -1.2,0.1 -1.86,0.07 -0.27,0 -0.4,0 -0.4,-0.2 0,-0.2 0.13,-0.12 0.28,-0.15 a 3,3 0 0 0 0.58,-0.07 c 0.52,-0.13 0.85,-0.48 0.9,-2.36 0,-1 0,-2.26 0,-4.49 z"
     id="path65" />
  <path
     class="cls-3"
     d="m 27.019685,30.612059 c -0.48,-0.22 -0.52,-0.35 -0.52,-1.21 0,-1.59 0.14,-2.85 0.18,-3.36 0,-0.35 0.1,-0.51 0.27,-0.51 0.17,0 0.24,0.09 0.24,0.35 a 4.83,4.83 0 0 0 0.11,1.17 c 0.51,2.35 5.94,3.26 8.26,3.26 3.31,0 4.93,-2.19 4.93,-4.22 0,-2.19 -1,-3 -4,-5.27 l -1.55,-1.17 c -3.66,-2.76 -4,-4.32 -4,-6.48 0,-3.4000001 2.31,-6.2300001 6.85,-6.0000001 a 5.38,5.38 0 0 0 3.12,-0.93 c 0.47,-0.4 0.78,-0.83 1.06,-0.83 0.28,0 0.37,0.52 0.37,0.68 0,0.16 -0.14,1.21 -0.14,3.36 0,0.51 -0.06,0.7300001 -0.24,0.7300001 -0.18,0 -0.24,-0.16 -0.27,-0.4100001 a 5.33,5.33 0 0 0 -0.45,-1.59 c -0.21,-0.35 -0.64,0.36 -3.82,0.36 -2.38,0 -4.24,1.36 -4.24,3.6800001 0,1.81 0.4,2.54 3.71,4.92 l 1,0.7 c 4.07,3 5,4.47 5,7 a 6.41,6.41 0 0 1 -2.93,5.27 9.71,9.71 0 0 1 -5.21,1.33 c -1.58,0.04 -6.31,-0.2 -7.73,-0.83 z"
     id="path67" />
  <path
     class="cls-3"
     d="m 59.089685,19.472059 c 0.07,0 0.15,0 0.15,-0.17 v -0.57 c 0,-4.27 0,-4.71 0,-5.59 0,-0.88 -0.21,-2.4 -1,-2.59 a 5,5 0 0 0 -0.89,-0.2 0.18,0.18 0 0 1 -0.2,-0.17 c 0,-0.16 0.13,-0.2700001 0.39,-0.2200001 a 27.48,27.48 0 0 1 2.87,1.0000001 c 0.7,0.23 1.68,0.51 2.44,0.75 0.26,0.08 0.4,0 0.4,0.22 0,0.22 -0.1,0.16 -0.2,0.16 a 3.63,3.63 0 0 0 -0.61,0.08 c -0.67,0.14 -1,0 -1,1 0,1 -0.08,1.32 -0.08,5.59 v 4.81 c 0,2.63 0,4.79 0.12,5.94 0.08,0.8 0.23,1.4 1,1.51 a 11.14,11.14 0 0 0 1.11,0.11 c 0.15,0 0.2,0.08 0.2,0.16 0,0.08 -0.13,0.22 -0.4,0.22 -1.35,0 -2.9,-0.08 -3,-0.08 -0.1,0 -1.67,0.08 -2.41,0.08 -0.27,0 -0.39,-0.05 -0.39,-0.22 0,-0.17 0,-0.16 0.19,-0.16 a 3.78,3.78 0 0 0 0.74,-0.11 c 0.49,-0.11 0.61,-0.71 0.71,-1.51 0.13,-1.15 0.13,-3.31 0.13,-5.94 v -2.9 a 0.15,0.15 0 0 0 -0.15,-0.16 h -10.55 c -0.07,0 -0.14,0 -0.14,0.16 v 2.87 c 0,2.63 0,4.79 0.12,5.94 0.07,0.8 0.22,1.4 1,1.51 a 10.7,10.7 0 0 0 1.1,0.11 c 0.15,0 0.2,0.08 0.2,0.16 0,0.08 -0.12,0.22 -0.39,0.22 -1.35,0 -2.9,-0.08 -3,-0.08 -0.1,0 -1.67,0.08 -2.41,0.08 -0.27,0 -0.39,-0.05 -0.39,-0.22 0,-0.17 0,-0.16 0.2,-0.16 a 3.68,3.68 0 0 0 0.73,-0.11 c 0.5,-0.11 0.62,-0.71 0.72,-1.51 0.12,-1.15 0.12,-3.31 0.12,-5.94 v -4.81 c 0,-4.27 0,-9.4900001 0,-10.3700001 0,-0.88 -0.24,-2.16 -1,-2.35 a 3.86,3.86 0 0 0 -0.84,-0.09 c -0.1,0 -0.2,0 -0.2,-0.16 0,-0.16 0.13,-0.2 0.4,-0.22 a 18.72,18.72 0 0 1 2.69,0.25 15.91,15.91 0 0 0 2.5,0.55 c 0.27,0 0.39,0.05 0.39,0.22 0,0.17 -0.1,0.16 -0.2,0.16 a 3.63,3.63 0 0 0 -0.61,0.08 c -0.67,0.14 -0.86,0.6 -0.91,1.56 -0.05,0.96 -0.08,6.1000001 -0.08,10.3700001 v 0.57 c 0,0.14 0.07,0.17 0.14,0.17 z"
     id="path69" />
</svg>
